<?xml version="1.0" encoding="UTF-8" standalone="no"?>
<svg
   version="1.1"
   id="svg2"
   width="620"
   height="620"
   viewBox="0 0 620 620"
   xmlns="http://www.w3.org/2000/svg"
   >
  <defs
     id="defs6" />
  <g
     id="g8"
     transform="translate(-394.33474,-379.75909)">
    <g
       id="g427"
       transform="translate(146.82659,-519.62492)">
      <g
         id="g437"
         transform="translate(-395.96712,151.73531)">
        <path
           style="fill:#f9b435;stroke-width:1.33333"
           d="M 921.68911,1366.5669 C 660.01176,1340.2586 548.88659,1016.777 738.52177,833.37297 910.51613,667.0301 1197.7711,755.27251 1249.6458,990.38615 1294.6295,1194.2678 1126.4694,1387.1549 921.68911,1366.5669 Z"
           id="path431" />
        <path
           style="fill:#750b53;stroke-width:1.33333"
           d="m 923.02245,1352.5464 c -171.464,-16.2188 -292.96808,-179.7009 -260.50401,-350.5045 49.96521,-262.88251 401.96286,-322.03108 540.04286,-90.74708 121.0172,202.70378 -44.2081,463.51158 -279.53885,441.25158 z m 31.33333,-18.5972 c 0,-7.6299 0.1716,-8.0684 3,-7.6667 2.7358,0.3886 2.961,1.0297 2.55717,7.2797 -0.51062,7.9029 0.20572,8.6751 7.02211,7.5689 l 4.99583,-0.8107 -0.45422,-19.1402 c -0.39756,-16.7523 0.52083,-25.0491 1.78638,-16.1383 0.39164,2.7576 1.02761,2.9686 7.86986,2.6117 l 7.44382,-0.3883 1.63506,11.7217 c 2.82007,20.2167 2.2756,18.9684 7.89518,18.102 2.70353,-0.4168 5.07213,-0.8796 5.26353,-1.0283 0.1914,-0.1487 -0.9016,-8.8208 -2.4289,-19.2713 -3.43054,-23.4737 -3.03135,-24.1058 2.8047,-4.4413 2.5352,8.5424 5.8095,16.9359 7.2762,18.6523 l 2.6666,3.1207 10.4345,-3.5274 c 12.8973,-4.36 12.7341,-3.8835 8.1944,-23.9354 -4.8176,-21.2797 -14.1592,-29.3117 -12.8774,-11.0721 0.3701,5.2664 0.031,6.1269 -2.9524,7.4861 -3.7483,1.7078 -3.7942,1.6671 -6.0607,-5.3637 -1.8006,-5.5856 -1.6418,-5.5137 -8.0805,-3.6564 -4.63518,1.3371 -25.15647,4.9797 -35.32455,6.2703 -6.71915,0.8528 -6.3768,0.3971 -6.53383,8.6977 -0.21965,11.6106 -6.13284,11.3995 -6.13284,-0.2189 v -8.0927 h -6 -6 v 19.7777 c 0,22.0845 -0.16903,21.5556 6.88889,21.5556 h 5.11111 z m 62.59352,-15.4331 c -1.9611,-5.158 -1.5247,-6.7794 2.0063,-7.4544 3.4971,-0.6685 4.7335,0.9685 4.7335,6.2671 0,4.6049 -5.0989,5.5032 -6.7398,1.1873 z m -79.82757,21.8591 c 1.75662,-5.8978 3.16956,-37.9499 1.72513,-39.1343 -2.78872,-2.2868 -23.41777,-3.5172 -25.38244,-1.514 -5.90824,6.024 -4.95447,39.2593 1.14824,40.0114 5.16455,0.6365 22.36424,1.1232 22.50907,0.6369 z m -16.80584,-16.6666 c 1.69378,-15.8621 1.85593,-16.3334 5.61936,-16.3334 3.39021,0 3.442,0.1385 2.61784,7 -0.46244,3.85 -0.84602,9.25 -0.85239,12 -0.0107,4.6902 -0.26539,5 -4.10753,5 h -4.09594 z m -42.90704,3.0259 c 0.23079,-3.0753 -0.42592,-3.9692 -3.71973,-5.0628 -2.2,-0.7305 -4.14431,-1.4404 -4.3207,-1.5775 -0.17637,-0.1371 1.23912,-4.8885 3.14555,-10.5586 3.69249,-10.9824 9.78333,-14.5995 10.93454,-6.4937 0.23434,1.65 0.83434,3.0082 1.33334,3.0182 0.499,0.011 2.24657,0.3772 3.8835,0.816 3.42124,0.917 6.3809,-4.5683 5.13762,-9.5219 -0.90008,-3.5863 -21.11301,-9.9265 -24.6208,-7.7229 -2.22799,1.3996 -13.23629,35.7785 -11.88815,37.1266 1.48123,1.4813 17.7582,5.4711 18.7815,4.6038 0.57918,-0.4909 1.17918,-2.5732 1.33333,-4.6272 z m -17.94965,-20.7474 c 7.08298,-17.858 6.04264,-30.2024 -1.87786,-22.2819 -5.48314,5.4832 -15.53372,36.9654 -12.22556,38.2952 6.43086,2.5848 6.96946,1.9733 14.10342,-16.0133 z m 200.2299,12.162 c 6.5006,-2.4405 9.8713,-4.3993 9.6321,-5.5974 -0.3815,-1.911 -13.7169,-34.7565 -14.5042,-35.7242 -1.3112,-1.6117 -23.2257,9.8065 -23.8883,12.4467 -0.8192,3.264 3.9485,15.4344 6.0464,15.4344 0.7594,0 1.3807,0.9239 1.3807,2.0531 0,2.6108 5.2127,12.9649 7.1791,14.2598 2.1924,1.4437 3.205,1.2382 14.1542,-2.8724 z m -9.2521,-7.9555 c -2.0421,-3.8156 -1.763,-5.0829 1.2957,-5.8828 2.4387,-0.6377 8.0815,4.8336 6.4704,6.2737 -2.4263,2.1688 -6.5061,1.9635 -7.7661,-0.3909 z m -7.1923,-13.0406 c -1.826,-1.826 -0.7951,-5.7342 1.8919,-7.1722 3.1053,-1.6619 2.9321,-1.7441 5.1002,2.422 2.3457,4.5073 -3.3593,8.3831 -6.9921,4.7502 z m -197.12317,3.7754 c 9.92647,-19.3609 10.04036,-18.6116 -3.89408,-25.6177 -11.87145,-5.9688 -14.08615,-5.6557 -16.46684,2.3286 -1.24659,4.1807 5.74141,8.0183 8.88203,4.8777 6.50261,-6.5027 7.63541,0.6889 2.04261,12.9673 -5.39103,11.8355 -13.67511,16.0901 -11.06276,5.6817 0.96897,-3.8607 -6.71539,-8.7218 -8.82576,-5.5832 -6.37888,9.487 -6.00551,10.3976 7.06304,17.2258 13.00069,6.7927 12.57023,7.0225 22.26176,-11.8802 z m 243.30737,2.2136 c 11.2634,-7.5905 11.1984,-6.4241 1.3975,-25.0916 -10.3216,-19.6592 -9.0019,-17.8853 -12.0231,-16.1612 -6.1928,3.534 -6.1757,3.4849 -3.225,9.2688 l 2.7946,5.4779 -3.3835,2.2169 c -1.8609,1.2194 -3.5606,1.9857 -3.777,1.7031 -0.2165,-0.2827 -1.7591,-2.7841 -3.4281,-5.5586 l -3.0345,-5.0446 -4.197,2.7049 c -5.1407,3.3131 -5.4056,2.3162 5.2345,19.6952 11.7927,19.2614 11.3617,19.0647 23.6416,10.7892 z m -11.0201,-10.6475 c -2.691,-4.4059 -1.4606,-7.7859 2.8342,-7.7859 1.0599,0 5.6706,8.0358 4.8778,8.5012 -0.2374,0.1393 -1.4579,1.0373 -2.7121,1.9954 -1.9909,1.5209 -2.6255,1.1768 -4.9999,-2.7107 z m -266.17923,-0.5263 c 6.02485,-9.0741 6.08892,-8.5696 -1.96987,-15.5127 -6.53557,-5.6307 -6.6786,-5.9025 -4.25814,-8.093 3.10324,-2.8084 8.94733,0.2839 7.79774,4.1261 -1.49397,4.9932 5.48839,7.4913 9.18732,3.287 5.59927,-6.3643 -6.91778,-21.7337 -17.70016,-21.7337 -4.69102,0 -14.08936,18.0061 -10.71944,20.5372 10.74424,8.0698 11.19924,8.6238 8.93927,10.8837 -2.61423,2.6143 -8.52068,0.3356 -7.30977,-2.82 0.71706,-1.8686 -3.80063,-5.9342 -6.59412,-5.9342 -9.65004,0 -6.06503,11.4976 5.80081,18.604 10.18884,6.102 10.60988,6.0183 16.82636,-3.3444 z m 306.77403,-9.4385 c 6.7218,-4.4733 10.9335,-8.1142 10.4112,-9 -0.7042,-1.1944 -22.0634,-29.1976 -23.9631,-31.4171 -0.2805,-0.3278 -2.1238,1.0178 -4.0962,2.9902 l -3.5862,3.5862 2.4231,4.1021 c 3.1931,5.4054 2.0335,6.1985 -4.6536,3.183 l -5.5108,-2.485 -2.5028,3.0908 c -3.2992,4.0743 -3.1611,5.2192 0.8497,7.0467 2.4187,1.102 3.1323,2.2214 2.5618,4.0188 -0.7952,2.5056 13.0747,22.3965 15.617,22.3965 0.6389,0 6.2413,-3.3805 12.4499,-7.5122 z m -12.5916,-8.697 c -3.07,-4.1523 -2.7408,-7.5626 0.8453,-8.758 3.2019,-1.0673 9.0801,9.1956 6.3925,11.1608 -3.3928,2.4809 -3.7035,2.3777 -7.2378,-2.4028 z m -140.30893,10.2824 C 1152.372,1273.2776 1241.7765,1038.0487 1111.1921,902.3769 953.3703,738.40666 677.13475,884.03452 725.19693,1105.8686 c 22.53412,104.0077 129.89203,189.5117 225.15885,179.3252 1.83333,-0.196 8.91961,-0.6814 15.74729,-1.0787 z m -42.8473,-7.3867 C 739.19887,1253.4238 662.24988,1034.3699 792.30224,903.93758 927.66735,768.17697 1159.2895,859.5682 1165.9686,1051.3752 c 4.6076,132.3189 -113.2485,241.7456 -242.71283,225.3532 z m -39.58564,-86.0924 c 18.34201,-8.287 39.47226,-30.4109 51.26933,-53.6803 1.23233,-2.4307 5.29039,-7.5307 9.01791,-11.3333 l 6.77729,-6.9138 -2.26441,-31.3334 c -2.47751,-34.2818 -4.92383,-66.5898 -8.07664,-106.66661 -1.12498,-14.3 -2.0437,-26.41228 -2.04162,-26.91617 0.003,-0.5039 -2.0398,-0.58455 -4.53752,-0.17922 -3.60709,0.58535 -8.00896,-0.80272 -21.39806,-6.7476 -9.27122,-4.1165 -19.5463,-8.16178 -22.8335,-8.9895 -31.17945,-7.85108 -46.94177,26.82185 -33.98413,74.7561 l 2.32212,8.5903 0.87234,-10.5903 c 3.86581,-46.93213 26.3423,-64.30964 52.26894,-40.41129 24.15415,22.2645 23.78837,91.08739 -0.74349,139.89209 -38.00637,75.6114 -82.02299,82.3332 -137.96291,21.0683 -10.19902,-11.1699 -11.48593,-11.4937 -7.35214,-1.8499 21.5345,50.2379 78.27801,79.5523 118.66649,61.3046 z m 169.33927,-7.5941 c 18.2408,-31.5987 10.6145,-57.6979 -23.6866,-81.0619 -25.3205,-17.2469 -35.76663,-41.227 -30.98849,-71.137 2.89859,-18.1447 6.59479,-21.616 31.39679,-29.4868 34.952,-11.09176 53.2374,-27.66568 56.1073,-50.85572 l 0.7993,-6.45856 -3.5336,6.87963 c -16.4664,32.05888 -59.2773,41.09704 -94.41499,19.93273 l -7.66666,-4.61781 -0.038,5.5694 c -0.0209,3.06316 -0.58779,16.36938 -1.25983,29.56933 -0.67204,13.2 -1.84891,40.8 -2.61527,61.3334 -0.76636,20.5333 -1.70066,40.9333 -2.07625,45.3333 l -0.68287,8 8.33608,0.1913 c 45.23209,1.0381 78.16609,35.0964 65.89239,68.142 -2.9132,7.8435 -0.4366,7.0982 4.4306,-1.3333 z m -197.56271,-29.6667 v -12.6666 h -8.54545 -8.54546 v 4 c 0,4.0491 4.03678,5.8432 6,2.6666 1.22831,-1.9874 4.66667,-1.6108 4.66667,0.5112 0,1.0145 -1.2,2.1583 -2.66667,2.5418 -1.46666,0.3836 -2.66666,1.6536 -2.66666,2.8222 0,1.236 1.11556,2.1248 2.66666,2.1248 1.72754,0 2.66667,0.8889 2.66667,2.5241 0,3.5729 -3.57136,4.5924 -4.44079,1.2677 -1.15066,-4.4002 -5.48384,-2.5497 -5.97702,2.5525 l -0.41782,4.3224 h 8.62994 8.62993 z m -26.42424,5.8898 c 0,-0.5137 -1.5,-1.3105 -3.33333,-1.7706 -4.81424,-1.2083 -4.10114,-3.1154 1.8293,-4.8922 4.47959,-1.3421 9.50403,-7.287 9.50403,-11.2451 0,-1.1694 -10.6118,-5.9819 -13.19036,-5.9819 -5.87015,0 -5.08543,7.1694 0.79596,7.2721 6.4082,0.112 4.80761,3.1281 -2.95927,5.5764 -12.00852,3.7853 -12.67112,7.6878 -2.2213,13.0826 6.12026,3.1596 9.57497,2.4231 9.57497,-2.0413 z m -16.77853,-17.4503 c 8.83848,-9.7669 8.85649,-9.8946 2.1775,-15.4395 -6.79886,-5.6444 -6.52178,-5.7208 -15.23614,4.205 -8.89656,10.1333 -8.77151,9.3852 -2.49616,14.9316 6.65125,5.8785 6.95458,5.8064 15.5548,-3.6971 z m -11.90275,0.2036 c -0.89004,-1.4401 6.77671,-11.9764 8.71463,-11.9764 3.07297,0 2.41708,3.2732 -1.59047,7.9371 -4.77473,5.5567 -5.82003,6.1494 -7.12416,4.0393 z m -11.28628,-8.6821 c 1.40493,-1.6929 1.14965,-2.6275 -1.50341,-5.5043 l -3.1957,-3.4652 6.47168,0.9401 c 11.59298,1.6839 16.24876,-5.6433 8.6001,-13.5347 -4.65299,-4.8007 -6.61014,-5.3629 -8.93152,-2.5659 -2.05002,2.4702 -0.44967,6.169 2.66906,6.169 1.3882,0 2.52402,0.9 2.52402,2 0,1.5688 -1.83371,2 -8.50342,2 -11.94829,0 -13.29416,2.0084 -6.66256,9.9419 5.61348,6.7155 6.10266,6.9459 8.53175,4.0191 z m 176.75409,-16.3147 c 1.14977,-0.7751 5.46659,-99.8145 6.45547,-148.10638 0.10933,-5.33906 -24.6589,-17.41657 -25.72472,-12.54392 -0.48358,2.21075 11.6811,156.8666 12.58534,160.004 0.52598,1.825 4.38218,2.1979 6.68391,0.6463 z m 97.37662,-41.4026 c 6.7003,-3.4353 10.9775,-8.1025 13.1099,-14.3051 3.1495,-9.1614 0.9013,-11.8855 -15.3968,-18.6566 -23.5947,-9.8025 -15.6127,-18.9327 11.1237,-12.7239 6.4063,1.4877 6.3014,0.2613 -0.5034,-5.8865 -12.537,-11.3264 -31.2883,-13.5119 -44.714,-5.2114 -15.5784,9.6314 -13.3091,19.1094 7.143,29.8344 18.3138,9.6037 16.9425,14.1927 -4.1005,13.7222 -15.3161,-0.3426 -16.5899,0.3608 -9.8251,5.4246 14.8537,11.119 31.0014,14.0379 43.1632,7.8023 z M 968.68911,949.34592 c 3.50788,-4.03721 4.0216,-11.91878 1.05311,-16.1569 -7.023,-10.02672 -23.4322,-4.84128 -23.35679,7.38093 0.0735,11.90407 14.61439,17.62557 22.30368,8.77597 z M 770.35578,1263.2375 c 0,-3.3294 -4.2248,-7.5538 -6.86424,-6.8636 -2.73938,0.7164 -5.07552,-1.4142 -5.11534,-4.6653 -0.0149,-1.2228 3.50609,-1.6667 13.22213,-1.6667 h 13.24253 l 2.93559,-4.1226 2.93559,-4.1227 -9.74575,-9.8112 c -5.36017,-5.3962 -10.24033,-9.5056 -10.8448,-9.132 -0.60447,0.3736 -1.09904,-0.1663 -1.09904,-1.1997 0,-3.6309 -14.76657,-20.8205 -17.13524,-19.947 -4.31153,1.5901 -29.53142,22.0915 -29.53142,24.0063 0,1.9076 11.36024,17.0315 15.1648,20.189 1.56713,1.3006 4.55094,-0.5379 16.21959,-9.9943 7.86454,-6.3735 13.65554,-10.4506 12.86887,-9.0603 -1.19029,2.1037 -0.61495,3.3668 3.42881,7.5278 l 4.85912,5 h -9.88105 c -21.67652,0 -25.24545,16.4785 -6.09555,28.1444 3.9894,2.4303 11.4354,-0.3579 11.4354,-4.2821 z m -33.04683,-30.8504 c -2.85551,-3.4407 -2.09746,-4.8453 6.21678,-11.5194 9.50835,-7.6326 10.17719,-7.8704 12.08919,-4.2978 1.14514,2.1398 0.282,3.4229 -5.61976,8.3544 -11.43104,9.5516 -11.10961,9.3625 -12.68621,7.4628 z m 406.94005,28.6548 c 11.3583,-10.8287 11.1385,-10.3966 7.3436,-14.4361 l -3.049,-3.2455 -3.1309,2.9413 -3.1308,2.9412 -11.0196,-10.9623 -11.0196,-10.9623 -3.6284,3.7872 -3.6283,3.7872 10.1799,10.9577 c 9.5459,10.2752 10.0453,11.1064 8.0182,13.3463 -2.6876,2.9698 -2.7005,4.1493 -0.086,7.882 2.8007,3.9984 2.4623,4.1538 13.151,-6.0367 z m 35.294,-41.6815 c 8.5209,-12.56 9.2279,-10.9274 -10.333,-23.8611 -16.6323,-10.9974 -16.1029,-11.0259 -24.6397,1.3289 -7.9202,11.4622 -8.1862,10.8 9.2849,23.1157 17.5427,12.3663 16.8924,12.3811 25.6878,-0.5835 z m -20.5206,-8.6485 c -8.2708,-5.9706 -9.489,-8.1067 -5.9104,-10.3641 3.8459,-2.4259 21.9074,10.7508 19.0556,13.902 -3.0278,3.3457 -3.9552,3.0962 -13.1452,-3.5379 z m -435.26707,5.2958 c 2.16359,-1.1189 3.93379,-2.7854 3.93379,-3.7033 0,-2.9367 -4.00797,-7.5091 -5.93423,-6.7699 -1.53625,0.5895 -4.73244,-2.9645 -4.73244,-5.2623 0,-2.0345 5.37924,-1.8574 13.71027,0.4512 12.09344,3.3513 13.36193,3.322 17.69889,-0.4085 l 3.55787,-3.0603 -7.11952,-11.503 -7.11952,-11.5029 -3.69732,2.1841 c -4.51735,2.6685 -4.53929,3.1782 -0.39932,9.2707 4.26927,6.2828 3.78891,6.5422 -6.80489,3.6746 l -8.87851,-2.4033 -5.81591,3.1771 c -7.26632,3.9694 -8.00874,6.255 -4.37886,13.4809 6.78117,13.4988 9.59393,15.6771 15.9797,12.3749 z m 465.99357,-17.6529 c 1.1188,-0.7866 7.9084,-11.1269 13.0451,-19.8671 0.7201,-1.2251 -32.5518,-20.4458 -35.3926,-20.4458 -1.8321,0 -10.644,21.4211 -9.9418,24.1676 1.5204,5.946 27.9792,19.1759 32.2893,16.1453 z m -14.3931,-15.0651 c -8.0626,-4.1616 -8.0905,-4.1977 -6.8405,-8.8601 0.7097,-2.6471 15.3062,2.4316 20.3879,7.0938 4.919,4.5129 -5.5753,5.8812 -13.5474,1.7663 z m -467.51271,4.4492 c 2.60171,-1.5369 3.61787,-2.9785 3.05446,-4.3334 -0.46438,-1.1166 -1.15787,-3.1248 -1.5411,-4.4626 -0.50416,-1.7599 -1.52894,-2.2235 -3.70676,-1.6769 -2.64074,0.6628 -6.24141,-4.7794 -4.3588,-6.588 1.7198,-1.6522 5.17766,-0.7674 7.32626,1.8747 3.76052,4.6243 9.0306,1.9741 6.95106,-3.4955 -2.27732,-5.9898 5.1841,-9.8361 8.189,-4.2214 1.23635,2.3101 1.03475,3.1165 -1.1642,4.6567 -4.60818,3.2277 -0.48798,10.9884 4.92218,9.2713 1.44138,-0.4575 4.13044,-2.0194 5.97568,-3.4708 l 3.35497,-2.639 -4.67001,-10.3061 c -6.5394,-14.4315 -6.57084,-14.453 -15.40456,-10.5463 -4.03556,1.7847 -7.71112,4.2189 -8.16792,5.4093 -0.50294,1.3106 -2.36062,2.1643 -4.70955,2.1643 -13.84233,0 -16.389,5.0352 -9.73181,19.2413 5.75433,12.2794 6.96741,13.0882 13.6811,9.1224 z m 506.06191,-36.8054 c 0.9987,-1.0151 5.4427,-21.5632 4.9444,-22.8617 -0.3536,-0.9214 -7.6593,-4.1154 -16.2349,-7.0978 -9.4206,-3.2763 -14.1408,-5.4574 -11.9254,-5.5107 2.6951,-0.065 3.6667,-0.7658 3.6667,-2.6457 0,-1.4067 0.3434,-3.4525 0.7631,-4.5462 0.4847,-1.2631 -0.2653,-2.315 -2.0557,-2.8832 -2.4711,-0.7843 -2.8548,-4.5649 -0.7165,-7.0605 2.1807,-2.5451 24.7582,3.2792 24.407,6.2962 -0.2765,2.3747 -1.313,3.548 -3.3957,3.8438 -6.574,0.9337 -5.5602,10.2264 1.2252,11.2311 7.6193,1.1282 10.345,-4.2481 10.9062,-21.5117 l 0.1997,-6.1452 -18.487,-3.0357 c -20.3944,-3.349 -22.1797,-3.0245 -22.1797,4.0323 0,3.7095 -0.2848,3.9464 -3.8794,3.2275 -2.8168,-0.5633 -4.1013,-0.1975 -4.6896,1.3357 -1.1445,2.9825 1.7618,5.9979 4.8395,5.0211 2.3018,-0.7306 2.4696,-0.3281 1.6606,3.9845 -0.5832,3.1088 -0.3112,5.5067 0.7731,6.8131 1.3793,1.662 1.3196,1.8803 -0.3403,1.2433 -1.3374,-0.5132 -2.29,0.26 -2.8371,2.3028 -1.6179,6.0408 -0.9786,7.2845 4.6045,8.9572 4.674,1.4004 5.3517,2.0578 4.6849,4.5444 -0.4289,1.5989 -0.7879,3.4239 -0.798,4.0555 -0.017,1.0556 -7.2867,0.227 -11.2069,-1.2774 -1.4069,-0.5398 -5.5213,8.5301 -4.3849,9.6665 3.1189,3.1189 38.3976,10.1133 40.4562,8.0208 z m -12.8756,-11.4163 c -3.5957,-1.0005 -4.721,-3.693 -2.7951,-6.6881 1.6817,-2.6153 9.9508,0.6637 8.8577,3.5124 -0.4049,1.0552 -0.7362,2.4694 -0.7362,3.1428 0,1.363 -0.5344,1.3663 -5.3264,0.033 z m -501.74089,-11.517 c 8.65366,-1.8469 16.40678,-3.5947 17.22916,-3.8839 1.04249,-0.3666 0.55773,-4.6858 -1.60108,-14.2653 -1.70296,-7.5568 -3.50112,-18.3804 -3.99591,-24.0525 -2.17013,-24.878 -41.02969,-20.5619 -40.26611,4.4723 l 0.36788,12.0607 12.66667,-0.8372 c 6.96667,-0.4604 15.96667,-1.1101 20,-1.4437 4.67103,-0.3863 6.1232,-0.2257 4,0.4425 -3.42024,1.0763 -3.58304,1.8399 -2.46191,11.5488 0.40518,3.5087 0.012,4.0518 -3.20476,4.4219 -3.13728,0.361 -3.66666,-0.061 -3.66666,-2.9213 0,-4.1292 -0.98314,-4.786 -5.78936,-3.8672 -3.49507,0.6681 -3.71047,1.0611 -2.91263,5.3139 0.79303,4.2272 0.61807,4.5577 -2.20028,4.1559 -2.39081,-0.3409 -3.23944,-1.5355 -3.87228,-5.4512 -1.03111,-6.38 -1.48171,-6.7671 -6.57524,-5.6484 -3.4632,0.7607 -4.08327,1.4315 -3.50664,3.7936 0.38527,1.5782 1.40544,6.967 2.26705,11.9751 1.47602,8.5792 1.74636,9.0604 4.67735,8.3248 1.71093,-0.4294 10.19107,-2.2919 18.84475,-4.1388 z m -18.78467,-40.1648 c 1.49043,-6.0847 18.94855,-9.1415 21.04263,-3.6844 1.43932,3.7508 0.90878,4.2414 -5.52402,5.1085 -3.48333,0.4696 -8.60909,1.1948 -11.39057,1.6116 -5.00045,0.7494 -5.04681,0.7153 -4.12804,-3.0357 z m 547.18526,-8.3642 v -5.2374 l -7.5625,-0.9449 -7.5625,-0.9449 8.2292,-3.7355 c 8.0427,-3.6508 8.2291,-3.8535 8.2291,-8.9473 v -5.2118 l -15,-0.8644 c -8.25,-0.4754 -17.55,-0.867 -20.6666,-0.8704 l -5.6667,-0.01 v 5.3334 5.3333 h 7.7778 c 10.9431,0 10.9741,1.1972 0.1607,6.2059 -9.1389,4.233 -9.4334,4.5185 -9.0261,8.7516 l 0.4209,4.3758 8.6667,0.3713 c 4.7667,0.2041 9.8667,0.5724 11.3333,0.8184 1.4667,0.2459 6.7167,0.5289 11.6667,0.6288 l 9,0.1815 z m -518.46059,-14.7626 c -0.25334,-2.5667 -0.55334,-4.7534 -0.66667,-4.8595 -0.11333,-0.106 -9.05605,-0.6286 -19.87272,-1.1612 l -19.66667,-0.9684 v 6.1959 6.196 l 20.33334,-0.3681 20.33333,-0.3681 z m 0.86336,-13.4921 c 0.42938,-5.1207 -2.3131,-6.4489 -13.40783,-6.4932 -3.32048,-0.013 -3.63936,-0.4293 -3.33333,-4.3481 0.31216,-3.9971 0.003,-4.3657 -3.99492,-4.7511 -4.03678,-0.3892 -4.33334,-0.1383 -4.33334,3.6667 0,3.1956 -0.58033,4.0844 -2.66666,4.0844 -2.31111,0 -2.66667,-0.8888 -2.66667,-6.6666 v -6.6667 h -4.52789 -4.5279 l -0.94313,10.6545 c -0.51872,5.86 -0.89372,11.11 -0.83331,11.6667 0.0977,0.9007 33.80728,4.2123 38.83223,3.8148 1.29475,-0.1024 2.14203,-1.8519 2.40275,-4.9614 z m 498.47953,-1.97 c 17.9459,-2.4202 28.3561,-23.6842 14.2459,-29.0988 -1.5467,-0.5935 -38.0221,1.589 -38.6083,2.3101 -2.649,3.2588 1.7696,8.8264 7.2882,9.1835 10.2808,0.6652 9.5364,8.9981 -0.8081,9.0469 -4.0181,0.019 -4.3333,0.3437 -4.3333,4.4648 0,7.2632 -0.5439,7.1629 22.2156,4.0935 z m -2.2156,-14.5379 c 0,-4.0306 8.3847,-5.0619 9.8617,-1.213 1.2489,3.2546 -0.2496,4.5463 -5.2737,4.5463 -4.005,0 -4.588,-0.4236 -4.588,-3.3333 z m -494.66668,-8.3991 v -5.0657 l -19,-3.4674 c -20.56665,-3.7533 -21.31003,-3.625 -20.68069,3.5702 l 0.34736,3.9714 16.66666,2.831 c 23.9214,4.0631 22.66667,4.1649 22.66667,-1.8395 z m 5.31959,-21.4574 c 3.04726,-12.03137 2.83854,-12.85285 -3.74538,-14.7411 -3.53976,-1.01519 -4.46724,-0.80415 -5.57673,1.26895 -1.98239,3.70414 -1.62324,7.9953 0.66919,7.9953 2.18764,0 2.33857,0.60288 1.20672,4.81985 l -0.75687,2.8199 -12.22493,-2.6558 c -14.38554,-3.1253 -13.23636,-2.4794 -12.14527,-6.82661 0.62387,-2.48567 1.74941,-3.49067 3.90939,-3.49067 2.85356,0 4.60586,-2.86393 4.65942,-7.61528 0.12947,-11.48309 -13.17278,-3.3779 -16.60696,10.11881 -3.67304,14.43555 -5.20942,12.81075 17.29183,18.28585 20.4008,4.9641 19.42953,5.3797 23.31959,-9.9792 z m 473.55039,12.3391 c 1.9385,-1.7543 2.8021,-1.8613 4.3891,-0.5442 2.1787,1.8081 21.5386,-1.5941 25.4204,-4.4674 1.8216,-1.3483 0.099,-19.03495 -2.6288,-26.99117 -0.4699,-1.37051 -37.3092,6.33425 -39.1664,8.19146 -2.7917,2.79171 2.1987,9.28341 6.8298,8.88441 6.0404,-0.5204 6.2696,1.099 0.8062,5.6962 -3.8724,3.2584 -4.0379,3.7508 -2.5049,7.4519 1.8656,4.5039 3.4027,4.9028 6.8546,1.7788 z m 9.9393,-13.2583 c -1.4201,-3.7009 -0.9146,-4.40305 4.1907,-5.82087 6.6839,-1.8562 6.5983,-1.8786 7.3242,1.91887 0.5506,2.8799 -0.01,3.5003 -4.1779,4.6592 -6.2511,1.7364 -6.3854,1.7226 -7.337,-0.7572 z M 723.36109,981.45214 c -0.18625,-0.0857 -2.60102,-1.18436 -5.36616,-2.44131 -4.64161,-2.10992 -5.8889,-6.27043 -2.99289,-9.98315 0.14911,-0.19116 2.84013,0.55884 5.98007,1.66667 3.13992,1.10784 5.88698,2.01424 6.10457,2.01424 11.19159,0 2.13259,-10.51912 -14.06423,-16.33108 -20.57761,-7.38395 -20.8498,-7.31639 -25.70266,6.3802 -4.52672,12.77605 -5.35944,11.70468 16.39988,21.09975 l 16.63612,7.18301 1.67197,-4.71619 c 0.91957,-2.5939 1.51957,-4.78637 1.33333,-4.87214 z m -23.95612,-10.81375 c -3.2765,-1.77836 -3.87906,-6.04559 -1.04918,-7.43021 3.34478,-1.63656 9.21769,2.96206 7.78858,6.09862 -1.78761,3.92336 -1.91709,3.94895 -6.7394,1.33159 z m 497.83703,14.51895 c 9.7792,-3.41986 17.9332,-6.32255 18.1198,-6.45046 0.8812,-0.60382 -2.7144,-8.51997 -4.0992,-9.02482 -0.8654,-0.31551 -7.7644,1.67812 -15.331,4.43029 l -13.7576,5.00393 -1.1031,-2.8705 c -1.427,-3.71307 -1.5527,-3.62366 13.2849,-9.4463 13.7467,-5.39453 20.6715,-15.42422 10.6494,-15.42422 -3.0526,0 -35.8848,13.82162 -36.473,15.35426 -0.5686,1.48176 5.5857,19.69147 7.9456,23.5098 1.0724,1.73529 1.7301,1.57432 20.7642,-5.08198 z m -20.1752,-26.47122 c 3.6423,-1.84568 6.6223,-4.27548 6.6223,-5.39954 0,-1.6406 -3.262,-9.30696 -4.6639,-10.96124 -1.3277,-1.56664 -7.264,3.1767 -6.5987,5.27266 0.5756,1.81359 0.088,2.44392 -1.891,2.44392 -8.2002,0 -5.3346,-5.50194 6.155,-11.81754 l 9.5376,-5.2426 1.9693,3.00556 c 1.742,2.65861 1.7355,3.23934 -0.056,5.03097 -1.8117,1.81168 -1.7977,2.46585 0.1327,6.19881 l 2.1581,4.17338 5.2952,-2.70139 c 6.6117,-3.37304 6.5916,-4.5642 -0.295,-17.48896 -6.7075,-12.58865 -5.1319,-12.45572 -24.6115,-2.07649 -18.4051,9.80665 -18.2284,9.44436 -11.0734,22.70925 6.2676,11.61977 7.1915,11.98536 17.3193,6.85321 z m -442.98233,-1.9691 c 2.32246,-4.08146 6.23094,-5.33066 7.32688,-2.34176 0.46,1.25456 1.01292,1.28958 2.23614,0.14162 2.26072,-2.1216 1.09015,-6.51424 -1.67612,-6.28977 -2.81917,0.22875 -2.8702,-1.18065 -0.22776,-6.29056 2.39602,-4.63339 1.89387,-5.83003 -3.6493,-8.69651 -3.38767,-1.75184 -4.29922,-1.8076 -5.29344,-0.32385 -3.45686,5.15889 -3.69115,6.20497 -1.7504,7.81565 2.37754,1.97319 2.39617,2.64015 0.1561,5.58846 -1.50749,1.98413 -17.172,-4.0943 -23.30586,-9.04356 -1.97144,-1.59071 1.80009,-6.00872 4.82193,-5.64846 2.68867,0.32055 4.00956,-0.50832 5.86911,-3.6829 l 2.3996,-4.09656 -5.37378,-3.02023 c -6.63297,-3.72795 -7.28516,-3.28233 -14.53834,9.93333 -6.99162,12.73908 -7.80543,11.16462 10.94322,21.17154 18.82418,10.04722 19.04019,10.09406 22.06202,4.78356 z m 422.46713,-21.52571 3.0343,-2.85061 -3.4469,-5.88166 c -3.3362,-5.69293 -3.3667,-5.94234 -0.9484,-7.77364 2.8356,-2.14729 4.4985,-2.47936 4.4985,-0.89832 0,4.13419 3.6971,6.09336 7.1854,3.80772 3.3499,-2.19492 3.4191,-2.47214 1.5301,-6.12514 -3.6189,-6.99824 0.9082,-8.27987 5.3797,-1.52299 4.1098,6.21021 4.1336,6.21833 8.4709,2.88429 l 3.2328,-2.48498 -6.3267,-10.15079 -6.3267,-10.15079 -16.9061,11.5631 c -9.2983,6.3597 -17.0297,11.63277 -17.1808,11.71793 -0.5261,0.29653 13.31,20.71649 14.0371,20.71649 0.4029,0 2.0979,-1.28277 3.7668,-2.85061 z M 753.79144,923.96166 c 9.06753,-12.26115 9.43814,-11.23386 -8.81933,-24.44604 -17.10632,-12.37916 -15.99096,-12.42619 -25.2858,1.06629 -8.26079,11.99147 -8.91898,10.26847 8.71786,22.82195 17.93138,12.76312 16.38611,12.72916 25.38727,0.5578 z m -19.10232,-9.46694 c -8.52761,-6.12344 -9.774,-8.26396 -6.42864,-11.04037 3.11685,-2.58676 21.25873,11.168 19.37428,14.68913 -1.92147,3.59031 -3.47363,3.15283 -12.94564,-3.64876 z m 412.38968,-5.23704 c 7.942,-6.50786 8.4502,-8.87818 3.4086,-15.89857 -4.7115,-6.5606 -5.0198,-8.0244 -1.9388,-9.20668 3.1823,-1.22116 7.5992,3.06355 5.6185,5.45023 -4.3389,5.22798 5.9714,8.97136 10.7372,3.8984 9.3064,-9.9062 -12.873,-26.35358 -23.4048,-17.35604 -8.4923,7.25521 -8.4659,7.07177 -2.2354,15.55945 4.6866,6.38436 4.7955,6.76896 2.4118,8.51196 -4.1379,3.02573 -8.6258,-0.84871 -6.724,-5.80485 2.081,-5.42296 -4.5113,-8.22772 -10.057,-4.27887 -5.368,3.82236 -4.9468,5.60908 3.6237,15.37097 8.7322,9.94608 10.554,10.31456 18.5602,3.754 z m -375.03034,-8.15246 c 5.96283,-6.76486 7.35994,-9.12831 6.21292,-10.51036 -3.23462,-3.8975 -6.7022,-3.61678 -11.38465,0.92164 -5.93091,5.74846 -11.68076,2.72742 -6.10504,-3.20766 l 2.93237,-3.12137 -3.3408,-3.13852 -3.34081,-3.13853 -3.23463,3.03877 c -6.26077,5.88169 -8.16399,0.82463 -2.1225,-5.63975 l 3.97618,-4.25452 -3.362,-3.33984 -3.36201,-3.33982 -8.06304,8.3201 c -9.62078,9.92754 -10.29765,7.61298 6.83467,23.37106 16.56117,15.23274 14.75629,14.9335 24.35934,4.0388 z m -51.08019,-7.90004 c 0.13337,-3.70023 -3.87418,-4.85862 -5.15491,-1.49002 -0.68932,1.81302 -2.19925,3.6594 -3.35544,4.10307 -2.49855,0.95879 -2.81512,5.74961 -0.43547,6.59021 1.76931,0.625 8.85428,-6.66386 8.94582,-9.20326 z m 70.15165,-10.73336 c 9.93866,-8.77991 10.20926,-10.03386 3.7849,-17.53927 -7.52593,-8.79237 -9.18345,-9.22993 -16.2078,-4.27872 -5.93665,4.18453 -9.67457,4.54252 -9.67457,0.92653 0,-2.59925 3.57233,-5.32118 5.84108,-4.45058 1.03128,0.39573 3.24731,-0.74118 4.92451,-2.52648 l 3.04945,-3.246 -3.7688,-3.93377 c -4.57412,-4.77436 -6.13493,-4.22876 -16.37957,5.72562 -8.42463,8.18595 -8.41919,8.12248 -1.4309,16.71328 6.60659,8.12156 7.19978,8.20515 15.56732,2.19367 6.21068,-4.46194 6.56571,-4.5533 8.66776,-2.23055 2.81724,3.11301 -2.61237,9.54152 -5.56504,6.58885 -1.25624,-1.25624 -2.32776,-0.88892 -4.88908,1.676 l -3.28024,3.28486 3.39506,4.33333 c 4.57698,5.84191 6.02025,5.54931 15.96592,-3.23677 z m 326.90808,-13.4299 c 14.2316,-19.21213 14.1865,-18.76747 2.751,-27.08491 -11.2824,-8.20616 -9.9152,-8.67958 -25.0104,8.66026 l -12.3117,14.14251 3.1161,2.5967 c 4.279,3.56578 5.7439,3.34003 9.5041,-1.4646 3.2011,-4.09024 3.2983,-4.11696 6.7518,-1.85414 3.6303,2.37864 3.5891,2.73473 -1.0543,9.1252 l -2.7522,3.78766 4,3.20571 c 2.2,1.76313 4.0873,3.20868 4.194,3.21232 0.1067,0.004 4.9719,-6.44337 10.8116,-14.32671 z m -10.3334,-11.65998 c -1.6809,-2.02547 1.209,-8.67335 3.7704,-8.67335 4.2083,0 5.9642,3.62647 3.435,7.0944 -2.914,3.99547 -4.8481,4.41929 -7.2054,1.57895 z m -287.67215,3.40318 c 4.69292,-2.35232 4.68199,-2.43989 -1.78471,-14.29289 -5.67378,-10.39965 -5.94844,-12.31674 -1.41714,-9.89166 3.90489,2.08982 4.19566,1.89249 4.26124,-2.89198 0.0708,-5.16533 0.78382,-4.45425 9.35486,9.32918 l 5.17939,8.32917 4.72803,-2.25464 c 2.60041,-1.24005 4.56684,-2.63811 4.36984,-3.1068 -1.35447,-3.22248 -20.3566,-34.62924 -20.94944,-34.62525 -4.02488,0.0271 -9.40874,5.73516 -9.40874,9.97541 0,5.17572 -1.68614,5.89135 -6.28745,2.66848 -3.00677,-2.10604 -12.37921,0.70304 -12.37921,3.71025 0,1.94036 19.05832,35.74724 19.89914,35.29837 0.42214,-0.22536 2.41752,-1.2368 4.43419,-2.24764 z m 263.03075,1.56972 c 5.2349,-3.75916 5.8727,-7.88281 1.6968,-10.97019 -3.6757,-2.71755 -4.2165,-2.80422 -5.3096,-0.8509 -1.4652,2.61819 -2.3367,2.6569 -5.5188,0.24507 -2.2212,-1.68364 7.6519,-23.40356 10.6385,-23.40356 3.0187,0 5.729,3.13459 5.0499,5.84032 -1.4694,5.85465 5.7658,8.86605 9.6473,4.01532 4.9172,-6.14509 4.062,-7.93979 -7.2349,-15.18293 -13.3872,-8.58343 -12.0154,-9.14354 -22.9779,9.38198 -11.155,18.85088 -11.1603,18.76742 1.654,26.25445 10.5231,6.14836 10.3747,6.09228 12.3547,4.67044 z m -17.4385,-31.4567 c 10.1323,-19.09968 10.1163,-22.18955 -0.115,-22.18955 -3.7073,0 -18.0076,36.00676 -14.8106,37.29179 5.443,2.18783 6.1128,1.51015 14.9256,-15.10224 z m -207.10064,9.58239 10.341,-4.22806 -1.95054,-3.77194 c -2.26171,-4.37364 -2.42322,-4.40358 -9.77179,-1.81084 -5.37756,1.8973 -5.59473,1.86478 -6.67776,-1 -1.25428,-3.31782 -0.71453,-4.95116 1.64617,-4.98151 3.85207,-0.0495 5.10708,-2.11305 3.47016,-5.70569 -1.31661,-2.88967 -2.38445,-3.43798 -6.25629,-3.21248 -6.99064,0.40716 -6.87451,-2.62096 0.21709,-5.66078 5.54739,-2.37789 7.40652,-10.73397 2.3882,-10.73397 -1.42801,0 -19.5021,6.96981 -20.59298,7.94117 -0.91954,0.81876 3.39854,12.69374 11.26578,30.98164 3.26911,7.59926 2.82234,7.53802 15.92096,2.18246 z m 194.40354,-15.4386 c 3.8908,-9.35 7.3472,-17.6899 7.6809,-18.53311 0.679,-1.71564 -8.1458,-5.09619 -10.1194,-3.87645 -0.6941,0.42901 -1.9784,3.02168 -2.8538,5.76146 -2.2988,7.19468 -3.9362,8.3378 -3.9362,2.7481 0,-10.2848 -7.2751,-20.93596 -11.4491,-16.76202 -3.4247,3.42467 -14.5517,38.34664 -12.4104,38.95007 1.3894,0.39157 3.6686,1.03411 5.0649,1.42785 2.0915,0.5898 3.0885,-0.70194 5.6599,-7.33333 3.8999,-10.05768 5.1297,-10.14899 5.1529,-0.38257 0.029,12.4268 1.0595,14.32414 8.059,14.84533 1.4511,0.108 4.2093,-4.96904 9.1513,-16.84533 z m -166.89515,6.28149 c 5.31666,-1.58101 9.66589,-3.26612 9.66494,-3.74469 -9.4e-4,-0.47858 2.52427,-0.87014 5.61159,-0.87014 h 5.61331 l -0.37896,-6.33333 c -0.29308,-4.89808 0.0724,-6.33333 1.61269,-6.33333 1.09541,0 2.89612,-0.34707 4.00156,-0.77127 1.51264,-0.58045 2.29175,0.65395 3.14913,4.98945 1.19622,6.04882 3.18646,7.37488 8.91191,5.9379 l 2.97527,-0.74675 -3.16742,-18.37133 c -3.97045,-23.02903 -3.5137,-22.53247 -18.06734,-19.64215 -13.66428,2.71369 -13.04735,1.50596 -10.89172,21.32223 1.70225,15.64841 1.65073,20.47294 -0.14234,13.32878 -0.71918,-2.86546 -1.48149,-3.44608 -3.73156,-2.8422 -1.55525,0.41742 -3.57773,0.76712 -4.4944,0.77714 -0.91666,0.0107 -1.66666,1.44825 -1.66666,3.19609 0,9.1826 -6.52977,4.98988 -10.01279,-6.42915 -4.34686,-14.25112 -1.95109,-21.14262 4.55576,-13.10481 5.00488,6.18244 12.09343,-1.55975 8.15899,-8.91133 -1.84028,-3.43858 -4.61748,-3.42594 -17.61116,0.0801 -12.55092,3.3866 -12.34865,2.49897 -5.62508,24.68499 4.81783,15.8976 6.16592,18.24968 9.86761,17.21653 1.1,-0.30701 6.35,-1.85176 11.66667,-3.43276 z m 19.698,-26.36127 c -2.48452,-2.48453 -0.53216,-9.58689 2.63533,-9.58689 1.83333,0 3.34152,0.75 3.35153,1.66667 0.0107,0.91666 0.35924,2.9373 0.77607,4.49032 0.72707,2.70894 -4.72089,5.47194 -6.76293,3.4299 z m 109.63475,26.07978 c 2.8444,-3.57546 9.7421,-36.1719 7.9909,-37.7629 -2.3597,-2.14374 -24.92965,-6.53433 -26.16813,-5.09052 -1.12966,1.31695 -8.16515,31.87704 -8.15926,35.44139 0.005,3.08377 10.53658,6.98625 24.17379,8.95773 0.4602,0.0665 1.4334,-0.62904 2.1627,-1.5457 z m -13.8327,-10.95328 c -1.355,-3.53122 3.754,-22.049 6.0771,-22.02631 4.7814,0.0467 5.1,1.72732 2.461,12.97959 -2.5734,10.97204 -6.2886,14.90864 -8.5381,9.04672 z m -15.75541,3.16044 c 0.39161,-0.63363 0.0705,-2.3507 -0.71354,-3.81572 -1.12905,-2.10963 -0.90033,-3.18888 1.09964,-5.18886 10.68894,-10.68893 4.83279,-27.42717 -10.46408,-29.90878 -15.21204,-2.46786 -13.2403,-4.41988 -15.44221,15.28789 -2.75741,24.67965 -2.89189,23.75164 3.44221,23.75164 5.01326,0 5.33334,-0.23533 5.33334,-3.92131 0,-6.18609 2.38189,-6.0695 5.46053,0.26727 2.77929,5.7206 8.77116,7.59391 11.28411,3.52787 z m -13.82131,-24.19566 c 0.41017,-5.65764 3.61927,-8.33557 6.51673,-5.4381 2.57586,2.57585 -0.25824,11.09326 -3.69118,11.09326 -2.98104,0 -3.2033,-0.44482 -2.82555,-5.65516 z m -28.46552,23.49694 4.12448,-0.8249 0.37552,-14.84177 0.37552,-14.84177 3.66667,-0.4219 c 3.20616,-0.3689 3.66666,-0.99688 3.66666,-5 v -4.5781 h -14 -14 v 4.5781 c 0,4.00312 0.46051,4.6311 3.66667,5 l 3.66667,0.4219 1.19493,15.66666 c 0.65721,8.61667 1.63221,15.66667 2.16667,15.66667 0.53445,0 2.82774,-0.3712 5.09621,-0.82489 z m 74.18554,-36.47078 c 2.2736,-3.67872 -3.4658,-8.09644 -7.4562,-5.73922 -2.1196,1.25208 -3.8538,2.68296 -3.8538,3.17972 0,1.28533 4.0237,2.66453 5.3615,1.83774 0.6165,-0.381 1.4978,-0.0829 1.9584,0.66235 1.0593,1.71397 2.9502,1.74212 3.9901,0.0595 z"
           id="path429" />
      </g>
    </g>
  </g>
</svg>
